Title: Tsar
Alternative Title: Le Tsar

Directors : ..... Pavel Lungin

Cast:
Pyotr Mamonov ... Ivan The Terrible
Oleg Yankovskiy ... Metropolitanate Philipp
Ramilya Iskander ... Mariya Temryukovna
Anastasiya Dontsova ... Masha
Aleksandr Domogarov ... Aleksei Basmanov
Aleksandr Ilin ... Fedka Basmanov
Ville Haapasalo ... Heinrich Staden (as Ville Khaapasalo)
Aleksei Frandetti ... Kai-Bulat
Ivan Okhlobystin ... Vassian
Yuriy Kuznetsov ... Malyuta Skuratov
Aleksey Makarov ... General Kolychev

Genre: Drama | History
Runtime: 118 Mins.
Country: Russia
Language: Russian
Subtitles: English (.srt)

Plot Summary :

In 16th-century Russia in the grip of chaos, Ivan the Terrible strongly believes he is vested with a holy mission. Believing he can understand and interpret the signs, he sees the Last Judgment approaching. He establishes absolute power, cruelly destroying anyone who gets in his way. During this reign of terror, Philip, the superior of the monastery on the Solovetsky Islands, a great scholar and Ivan's close friend, dares to oppose the sovereign's mystical tyranny. What follows is a clash between two completely opposite visions of the world, smashing morality and justice, God and men. A grand-scale film with excellent leading roles by Mamonov and Yankovsky. An allegory of Stalinist Russia.


Technical Info ..

General 
Format : AVI 
Format/Info : Audio Video Interleave 
File size : 1.37 GiB 
Duration : 1h 58mn 
Overall bit rate : 1 653 Kbps 
Movie name : Tzar (2009) 
Director : ELEKTRI4KA 
Writing application : VirtualDubMod 1.5.10.2 (build 2540/release) 
Copyright : http://uniongang.ru/ 

Video 
ID : 0 
Format : MPEG-4 Visual 
Format profile : Advanced Simple@L5 
Format settings, BVOP : Yes 
Format settings, QPel : No 
Format settings, GMC : No warppoints 
Format settings, Matrix : Custom 
Codec ID : XVID 
Codec ID/Hint : XviD 
Duration : 1h 58mn 
Bit rate : 1 195 Kbps 
Width : 720 pixels 
Height : 304 pixels 
Display aspect ratio : 2.35:1 
Frame rate : 25.000 fps 
Resolution : 8 bits 
Colorimetry : 4:2:0 
Scan type : Progressive 
Bits/(Pixel*Frame) : 0.218 
Stream size : 1 013 MiB (72%) 
Writing library : XviD 1.2.0.dev47 (UTC 2006-11-01) 

Audio 
ID : 1 
Format : AC-3 
Format/Info : Audio Coding 3 
Codec ID : 2000 
Duration : 1h 58mn 
Bit rate mode : Constant 
Bit rate : 448 Kbps 
Channel(s) : 6 channels 
Channel positions : Front: L C R, Surround: L R, LFE 
Sampling rate : 48.0 KHz 
Stream size : 380 MiB (27%) 
Alignment : Split accross interleaves 
Interleave, duration : 40 ms (1.00 video frame) 
Interleave, preload duration : 500 ms 

Trailer

IMDB: http://www.imdb.com/title/tt1424431/
